<svg id="Layer_1" data-name="Layer 1" xmlns="http://www.w3.org/2000/svg" viewBox="0 0 40 40"><title>gha-search-location</title><path d="M27.77,18.3a1.81,1.81,0,0,1-1.29.53,2.12,2.12,0,0,1-.44,0v6.91a1.82,1.82,0,0,1-3.64,0V15.51l-4.58-4.57-4.58,4.57V25.69a1.82,1.82,0,1,1-3.63,0V18.78a2.2,2.2,0,0,1-.44,0,1.82,1.82,0,0,1-1.29-3.1l8.66-8.65a1.43,1.43,0,0,1,.38-.27,1.05,1.05,0,0,1,.21-.12l.12-.05.21,0a1.79,1.79,0,0,1,.36,0,1.71,1.71,0,0,1,.41.06,2.11,2.11,0,0,1,.27.07l.12.05.11.08a1.24,1.24,0,0,1,.37.27l8.67,8.65A1.82,1.82,0,0,1,27.77,18.3ZM39.49,39.49a1.75,1.75,0,0,1-2.47,0l-8.26-8.26a17.7,17.7,0,1,1,2.47-2.47L39.49,37A1.75,1.75,0,0,1,39.49,39.49ZM31.75,17.62A14.13,14.13,0,1,0,17.62,31.75,14.15,14.15,0,0,0,31.75,17.62Z"/></svg>