<svg xmlns="http://www.w3.org/2000/svg" data-name="Layer 1" width="40" height="40"><rect id="backgroundrect" width="100%" height="100%" x="0" y="0" fill="none" stroke="none"/><title>gha-home-design</title><g class="currentLayer" style=""><title>Layer 1</title><path d="M35.49,3.33A4.53,4.53,0,0,0,31.06,7H.89A.89.89,0,0,0,0,7.84V35.78a.89.89,0,0,0,.89.89h34.6A4.52,4.52,0,0,0,40,32.16V7.84A4.52,4.52,0,0,0,35.49,3.33Zm0,31.56H1.78V8.73H31v21c0,.08,0,.85.28,1.11a.9.9,0,0,0,1.26,0,3.67,3.67,0,0,1,3-1.35,2.74,2.74,0,0,1,0,5.47Zm2.73-6.32a4.5,4.5,0,0,0-2.73-.93,5.35,5.35,0,0,0-2.74.67V7.84a2.74,2.74,0,0,1,5.47,0ZM7.13,31.06h5.36V29.28H8.91V26.6h3.63V24.82H8.91V14.34h6.58v12h1.78v-12h6.58v6.58H20v5.45h1.78V22.7h2.06v6.58H15.76v1.78h9.87V12.56H7.13Z" id="svg_1" class="selected" fill-opacity="1" fill="#ccd100"/></g></svg>