<svg id="Layer_1" data-name="Layer 1" xmlns="http://www.w3.org/2000/svg" viewBox="0 0 40 40"><title>gha-portal-forms</title><path d="M32.39,0H19.07a3.34,3.34,0,0,0-2.39,1l-2.4,2.4a1.22,1.22,0,0,0-.21,1.45h-.45a3.4,3.4,0,0,0-2.39,1l-6,6a3.44,3.44,0,0,0-1,2.39V36.62A3.39,3.39,0,0,0,7.61,40H26.94a3.38,3.38,0,0,0,3.38-3.38V34.88a1.29,1.29,0,0,0,.77.28h1.3a3.38,3.38,0,0,0,3.38-3.38V3.38A3.39,3.39,0,0,0,32.39,0ZM11.49,9.11v2.11a.88.88,0,0,1-.88.88H8.5ZM27.82,36.62a.87.87,0,0,1-.88.88H7.61a.88.88,0,0,1-.88-.88v-22h3.88A3.38,3.38,0,0,0,14,11.22V7.34h13a.87.87,0,0,1,.88.88Zm5.45-4.84a.88.88,0,0,1-.88.88h-1.3a1.24,1.24,0,0,0-.77.29V8.22a3.38,3.38,0,0,0-3.38-3.38H16.37l2.08-2.08a.85.85,0,0,1,.62-.26H32.39a.88.88,0,0,1,.88.88Z"/></svg>