<svg id="Layer_1" data-name="Layer 1" xmlns="http://www.w3.org/2000/svg" viewBox="0 0 40 40"><title>gha-home-build</title><path d="M19.4,36.75V9.52H31.1v5.92l-4.58,6.69h-1.9v2h15v-2h-1.9l-4.58-6.69V9.52h5.28a1,1,0,0,0,0-2h-19V2.25a1,1,0,0,0-1-1H9.91a1,1,0,0,0-1,1V7.52H1.41a1,1,0,0,0-1,1v6.26a1,1,0,0,0,1,1H8.9v21H0v2H40v-2ZM35.26,22.13H29l3.15-4.61ZM17.4,27.78l-5.86-4.53,5.86-4.53ZM10.91,3.25H17.4V7.52H10.91Zm0,6.27H17.4v5.11l-6.49-5Zm0,2.62,5.85,4.53-5.85,4.54Zm0,13.15,5.85,4.53-5.85,4.53ZM2.41,13.78V9.52H8.9v4.26Zm15,18.09v4.88H11.09Z"/></svg>