<svg id="Layer_1" data-name="Layer 1" xmlns="http://www.w3.org/2000/svg" viewBox="0 0 40 40"><title>gha-home-save</title><path d="M39.67,18.91,20.58,3.15a.91.91,0,0,0-1.16,0L.33,18.92A.91.91,0,0,0,.21,20.2a.91.91,0,0,0,.7.34.9.9,0,0,0,.58-.21L20,5,38.51,20.32a.91.91,0,0,0,1.16-1.41ZM23.31,35.24H7.07V18.68l-1.82,1.5V35.24h-3v1.82H37.72V35.24h-3V20.17l-1.82-1.5V35.24H23.31ZM25,25.91c0,2-1.59,3.52-4.14,3.84v2.47a.83.83,0,0,1-1.66,0V29.78a8.68,8.68,0,0,1-3.74-1.28,1,1,0,0,1-.28-1.35l0-.06a1,1,0,0,1,1.3-.3,6.87,6.87,0,0,0,3.61,1.08c1.67,0,2.56-.72,2.56-1.79,0-2.69-7.36-2.22-7.36-6.41,0-2,1.54-3.37,3.87-3.65V13.9a.83.83,0,0,1,1.66,0V16a5.67,5.67,0,0,1,3,1.18A1,1,0,0,1,24,18.56a1,1,0,0,1-1.27.16A4.58,4.58,0,0,0,20,17.9c-1.46,0-2.35.67-2.35,1.72C17.62,22,25,21.57,25,25.91Z"/></svg>