<svg id="Layer_1" data-name="Layer 1" xmlns="http://www.w3.org/2000/svg" viewBox="0 0 40 40"><title>gha-portal-partners</title><path d="M27.23,20.57A10.32,10.32,0,0,0,29,14.75C29,9.36,25,5,20,5s-9,4.39-9,9.78a10.27,10.27,0,0,0,1.83,5.87,5.68,5.68,0,0,0-3.85,5v3.93A5.49,5.49,0,0,0,14.44,35H25.56A5.49,5.49,0,0,0,31,29.55V25.62A5.59,5.59,0,0,0,27.23,20.57ZM20,7.83c3.39,0,6.16,3.1,6.16,6.92S23.39,21.66,20,21.66s-6.16-3.1-6.16-6.91S16.61,7.83,20,7.83Zm8.18,21.72a2.63,2.63,0,0,1-2.62,2.62H14.44a2.62,2.62,0,0,1-2.62-2.62V25.62c0-1.39,1.85-2.62,3.31-2.62h0a8.35,8.35,0,0,0,9.68,0,1.42,1.42,0,0,0,.2,0c1.57,0,3.12,1.3,3.12,2.62ZM2.86,20.88v2.55A1.57,1.57,0,0,0,4.43,25H6.59a1.43,1.43,0,0,1,0,2.86H4.43A4.44,4.44,0,0,1,0,23.43V20.88A4.5,4.5,0,0,1,2.69,17,8,8,0,0,1,1.5,12.81c0-4.21,3.17-7.63,7.06-7.63a6.58,6.58,0,0,1,2.8.62,1.43,1.43,0,1,1-1.21,2.59A3.76,3.76,0,0,0,8.56,8a4.52,4.52,0,0,0-4.2,4.77,4.51,4.51,0,0,0,4.2,4.76,1.43,1.43,0,1,1,0,2.86,6.57,6.57,0,0,1-3.63-1.12C4,19.32,2.86,20.15,2.86,20.88ZM40,20.74v2.55a4.44,4.44,0,0,1-4.43,4.43H33.41a1.43,1.43,0,0,1,0-2.86h2.16a1.57,1.57,0,0,0,1.57-1.57V20.74c0-.73-1.09-1.56-2.06-1.57a6.71,6.71,0,0,1-3.64,1.12,1.43,1.43,0,1,1,0-2.86,4.52,4.52,0,0,0,4.2-4.77,4.52,4.52,0,0,0-4.2-4.76,3.8,3.8,0,0,0-1.59.35,1.43,1.43,0,0,1-1.21-2.59A6.61,6.61,0,0,1,31.44,5a7.37,7.37,0,0,1,7.06,7.62,8,8,0,0,1-1.19,4.22A4.49,4.49,0,0,1,40,20.74Z"/></svg>