<svg id="Layer_1" data-name="Layer 1" xmlns="http://www.w3.org/2000/svg" viewBox="0 0 40 40"><title>gha-bathrooms</title><path d="M5.83,0a2.5,2.5,0,0,0-2.5,2.5v25a7.51,7.51,0,0,0,7.5,7.5H29.17a7.51,7.51,0,0,0,7.5-7.5V20.83H5V2.5a.83.83,0,0,1,.83-.83h7.5a.84.84,0,0,1,.84.83V4.24a5,5,0,0,0-4,3.68A1.67,1.67,0,0,0,11.78,10h6.44a1.67,1.67,0,0,0,1.62-2.08,5,5,0,0,0-4-3.68V2.5A2.5,2.5,0,0,0,13.33,0ZM35,27.5a5.84,5.84,0,0,1-5.83,5.83H10.83A5.84,5.84,0,0,1,5,27.5v-5H35ZM18.22,8.33H11.77a3.33,3.33,0,0,1,6.45,0ZM30,38.33a.84.84,0,0,1,.83.84A.83.83,0,0,1,30,40H10a.83.83,0,0,1-.83-.83.84.84,0,0,1,.83-.84Z"/></svg>