<svg id="Layer_1" data-name="Layer 1" xmlns="http://www.w3.org/2000/svg" viewBox="0 0 40 40"><title>gha-brief</title><path d="M35.35,6.79h-3V8.93h2V37.86H12.48v-2H10.34v3A1.07,1.07,0,0,0,11.41,40H35.35a1.07,1.07,0,0,0,1.06-1.07V7.86A1.07,1.07,0,0,0,35.35,6.79ZM29.66,32.14V1.07A1.07,1.07,0,0,0,28.59,0H4.66A1.06,1.06,0,0,0,3.59,1.07V32.14a1.06,1.06,0,0,0,1.07,1.07H28.59A1.07,1.07,0,0,0,29.66,32.14Zm-2.14-1.07H5.72V2.14h21.8ZM23.87,6.79H9.38V8.93H23.87Zm0,8.82H9.38v2.14H23.87Zm0,10.85V24.32H9.37v2.14Zm0-4.38V19.94H15.71v2.14ZM13,19.94H9.38v2.14H13Z"/></svg>