<svg id="Layer_1" data-name="Layer 1" xmlns="http://www.w3.org/2000/svg" viewBox="0 0 40 40"><title>gha-portal-shop</title><path d="M12.43,27.07l21.07.05a2.53,2.53,0,0,0,2.33-1.86L39.92,8.08a2.28,2.28,0,0,0-.41-2,2.62,2.62,0,0,0-2.07-1H8.75L7.6.4H1.33a1.34,1.34,0,0,0,0,2.67H5.51l5.3,21.64A4.48,4.48,0,0,0,8,28.87,4.43,4.43,0,0,0,9.26,32,4.41,4.41,0,0,0,8,35.13a4.47,4.47,0,1,0,8.55-1.8H30.41a4.46,4.46,0,1,0,4.09-2.67H12.43a1.8,1.8,0,0,1,0-3.59Zm0,9.86a1.8,1.8,0,0,1,0-3.6h0a1.8,1.8,0,0,1,0,3.6Zm22.06,0a1.8,1.8,0,1,1,1.8-1.8A1.8,1.8,0,0,1,34.5,36.93ZM37.26,7.74l-4,16.71-19.8-.05L9.4,7.74Z"/></svg>