<svg id="Layer_1" data-name="Layer 1" xmlns="http://www.w3.org/2000/svg" viewBox="0 0 40 40"><defs><style>.cls-1{fill-rule:evenodd;}</style></defs><title>gha-fittings</title><path class="cls-1" d="M34.07,6.66V33.34a1,1,0,0,1-1,1H6.93a1,1,0,0,1-1-1V6.66a1,1,0,0,1,1-1H33.07a1,1,0,0,1,1,1Zm-2,9.06H20.77V32.35H32.08V15.72Zm-11.31-2H32.08V7.65H20.77v6.08Zm-2,18.62V7.65H7.92v24.7ZM1,37.93H39a1,1,0,1,0,0-2H37.75a3,3,0,0,0,.18-1V5.09A3,3,0,0,0,37.05,3h0a3.06,3.06,0,0,0-2.14-.88H5.09a3,3,0,0,0-3,3V34.91a3,3,0,0,0,.18,1H1a1,1,0,1,0,0,2ZM18.53,4.05H5.09a1.06,1.06,0,0,0-1,1V34.91a1,1,0,0,0,.27.7l0,0a1,1,0,0,0,.72.31H34.92a1.05,1.05,0,0,0,.72-.3h0a1,1,0,0,0,.3-.73V5.09a1,1,0,0,0-.31-.73h0a1,1,0,0,0-.73-.3Z"/></svg>