<svg id="Layer_1" data-name="Layer 1" xmlns="http://www.w3.org/2000/svg" viewBox="0 0 40 40"><title>gha-tools</title><path d="M39.72,33.32,27.9,21.5a1,1,0,0,0-1.34,0l-1.2,1.2-2.11-2.12,4.37-4.29h2.1c2.68,0,7.17-1.14,7.17-8.73a1,1,0,0,0-1.36-.86l-4.36,2L29.6,7.12l1.92-4.43a.94.94,0,0,0-.87-1.33c-7.59,0-8.73,4.47-8.73,7.13v2.1L17.62,15,10.54,7.87l1.19-1.19a1,1,0,0,0-.18-1.49L5.33,1.46a.94.94,0,0,0-1.16.14L2.92,2.84A1,1,0,0,0,2.78,4l3.73,6.22a.93.93,0,0,0,.7.45h.12A1,1,0,0,0,8,10.41L9.19,9.22l7.1,7.09L1.36,31.46a.9.9,0,0,0-.23.4L0,35.59a1,1,0,0,0,.26,1L1.62,37.8a.94.94,0,0,0,.65.26.85.85,0,0,0,.23,0l3.77-.93a1,1,0,0,0,.44-.25L21.89,21.92,24,24l-1.19,1.2a.93.93,0,0,0,0,1.34L34.64,38.4a1,1,0,0,0,1.35,0l3.73-3.73A1,1,0,0,0,39.72,33.32ZM7.52,8.2,4.8,3.67,5,3.47,9.52,6.2l-1,1h0Zm-2,27.11-3,.74L2,35.57l.86-2.94,20.66-21a1,1,0,0,0,.28-.67V8.49c0-3.11,1.75-4.81,5.34-5.16L27.6,7a1,1,0,0,0,.19,1l2.49,2.57a1,1,0,0,0,1.09.2l3.54-1.67c-.36,3.56-2.07,5.29-5.19,5.29H27.23a1,1,0,0,0-.67.28Zm29.76,1.07L24.85,25.91,26,24.72h0l1.19-1.2L37.7,34Z"/></svg>