<svg id="Layer_1" data-name="Layer 1" xmlns="http://www.w3.org/2000/svg" viewBox="0 0 40 40"><title>gha-calculate</title><path d="M38.89,0H1.11A1.11,1.11,0,0,0,0,1.11V38.89A1.11,1.11,0,0,0,1.11,40H38.89A1.11,1.11,0,0,0,40,38.89V1.11A1.11,1.11,0,0,0,38.89,0ZM37.78,37.78H2.22V2.22H37.78ZM18.89,34.86h2.22V21.11H34.86V18.89H21.11V5.14H18.89V18.89H5.14v2.22H18.89Zm-9.77-19H11.4v-4h4V9.66h-4v-4H9.12v4h-4v2.25h4Zm3.93,8.9-2.8,2.8L7.43,24.78,5.84,26.37l2.82,2.82L5.84,32l1.61,1.61,2.81-2.82,2.81,2.8L14.66,32l-2.8-2.8,2.8-2.81Zm11.59,7.82H34.86V30.37H24.64Zm0-4.6H34.86V25.77H24.64ZM34.86,9.67H24.64v2.26H34.86Z"/></svg>