<svg id="Layer_1" data-name="Layer 1" xmlns="http://www.w3.org/2000/svg" viewBox="0 0 40 40"><title>gha-location</title><path d="M40,37.69,36.82,17.56a1,1,0,0,0-.7-.8l-3.66-1.1a13,13,0,0,1-.74,1.85l3.23,1,2.83,18-7.34-2.2L29.37,21l-1.82,2.24.9,11.08L21,36.5V30.08a3.64,3.64,0,0,1-1,.13,3.76,3.76,0,0,1-1-.13V36.5l-7.45-2.23.9-11.08L10.63,21,9.56,34.23l-7.34,2.2L5.05,18.48l3.23-1a14,14,0,0,1-.74-1.85l-3.66,1.1a1,1,0,0,0-.7.8L0,37.69a1,1,0,0,0,1.27,1.1L10.5,36l9.21,2.76h0a1.14,1.14,0,0,0,.52,0h0L29.5,36l9.22,2.76a.9.9,0,0,0,.28,0,1,1,0,0,0,1-1.14ZM18.89,27.2a1.43,1.43,0,0,0,2.22,0l7-8.63a10.58,10.58,0,1,0-16.17,0ZM20,3.15a8.6,8.6,0,0,1,6.58,14.13L20,25.4l-6.51-8-.06-.07A8.6,8.6,0,0,1,20,3.15Zm0,14.21a5.69,5.69,0,1,0-5.68-5.68A5.69,5.69,0,0,0,20,17.36ZM20,8a3.7,3.7,0,1,1-3.69,3.7A3.7,3.7,0,0,1,20,8Z"/></svg>