<svg id="Layer_1" data-name="Layer 1" xmlns="http://www.w3.org/2000/svg" viewBox="0 0 40 40"><title>gha-green-home</title><path d="M35.65,20.52l-1.51-1.25V33H27.67V26.74a.75.75,0,0,0-.76-.75h-7a.75.75,0,0,0-.76.75V33H12.68V19.28l-1.51,1.25V33H8.73l.17-6.33a7.77,7.77,0,0,1-1.52.16L7.21,33H4.63v1.51H38.11V33H35.65ZM26.15,33H20.66V27.5h5.49ZM39.83,20.54a.77.77,0,0,1-1.07.1L23.41,8,8.05,20.65A.76.76,0,0,1,7,20.55a.76.76,0,0,1,.1-1.07L22.93,6.39a.75.75,0,0,1,1,0L39.73,19.47A.77.77,0,0,1,39.83,20.54Zm-20,2.54H27a.76.76,0,0,0,.76-.75V17.58a.76.76,0,0,0-.76-.76H19.85a.76.76,0,0,0-.75.76v4.75A.76.76,0,0,0,19.85,23.08Zm.76-4.75h5.6v3.24h-5.6ZM7.37,25a5.59,5.59,0,0,1-5.58-5.58,4.87,4.87,0,0,1,0-.66A5.57,5.57,0,0,1,3.91,9.28a5.57,5.57,0,0,1,10.84,1.26l-1.33,1.11a.77.77,0,0,1-.17-.49v-.08a4.06,4.06,0,0,0-8-1,.77.77,0,0,1-.57.56A4.06,4.06,0,0,0,3.1,17.82a.75.75,0,0,1,.28.75,4.45,4.45,0,0,0-.08.81,4.07,4.07,0,0,0,4.07,4.06A4,4,0,0,0,9.18,23a.8.8,0,0,1,.34-.07h0v1.6l0,0A5.51,5.51,0,0,1,7.37,25Z"/></svg>