<svg id="Layer_1" data-name="Layer 1" xmlns="http://www.w3.org/2000/svg" viewBox="0 0 40 40"><title>gha-bedrooms</title><path d="M36.67,17.5V8.33A3.34,3.34,0,0,0,33.33,5H6.67A3.34,3.34,0,0,0,3.33,8.33V17.5A3.34,3.34,0,0,0,0,20.83v5a3.34,3.34,0,0,0,3.33,3.34H6.67v5a.83.83,0,1,0,1.66,0v-5H31.67v5a.83.83,0,0,0,1.66,0v-5h3.34A3.34,3.34,0,0,0,40,25.83v-5A3.34,3.34,0,0,0,36.67,17.5ZM5,8.33A1.66,1.66,0,0,1,6.67,6.67H33.33A1.66,1.66,0,0,1,35,8.33V17.5H32.5V15.83a3.34,3.34,0,0,0-3.33-3.33H25a3.33,3.33,0,0,0-3.33,3.33V17.5H18.33V15.83A3.33,3.33,0,0,0,15,12.5H10.83A3.34,3.34,0,0,0,7.5,15.83V17.5H5ZM30.83,17.5h-7.5V15.83A1.66,1.66,0,0,1,25,14.17h4.17a1.66,1.66,0,0,1,1.66,1.66Zm-14.16,0H9.17V15.83a1.66,1.66,0,0,1,1.66-1.66H15a1.66,1.66,0,0,1,1.67,1.66Zm21.66,8.33a1.66,1.66,0,0,1-1.66,1.67H3.33a1.66,1.66,0,0,1-1.66-1.67v-5a1.66,1.66,0,0,1,1.66-1.66H36.67a1.66,1.66,0,0,1,1.66,1.66Z"/></svg>