<svg id="Layer_1" data-name="Layer 1" xmlns="http://www.w3.org/2000/svg" viewBox="0 0 40 40"><title>gha-social-pinterest</title><path d="M34.14,5.86A20,20,0,1,0,40,20,19.9,19.9,0,0,0,34.14,5.86ZM27.91,18.93c-.77,3.33-3.11,5.62-6.27,5.62a3.47,3.47,0,0,1-3-1.47s-.72,2.7-.85,3.23a12.32,12.32,0,0,1-2.19,3.83c-.09.1-.28.07-.29-.06a12.81,12.81,0,0,1,0-4.45c.22-1,1.55-6.39,1.55-6.39a4.25,4.25,0,0,1-.31-1,5.14,5.14,0,0,1-.08-.86c0-1.73,1.05-3,2.34-3a1.59,1.59,0,0,1,1.65,1.76,7.57,7.57,0,0,1-.43,2c-.22.71-.48,1.44-.65,2.13a1.83,1.83,0,0,0,1.91,2.26c1.79,0,3.11-1.7,3.62-4.06a10.17,10.17,0,0,0,.22-2.17c0-2.57-1.79-4.49-5-4.49a5.66,5.66,0,0,0-6,5.62,3.93,3.93,0,0,0,.14,1.08A3.08,3.08,0,0,0,15,19.71a.55.55,0,0,1,.16.66c-.07.22-.19.73-.25.94a.4.4,0,0,1-.6.28,3.86,3.86,0,0,1-2.26-2.72,6.24,6.24,0,0,1-.22-1.76c0-3.33,2.91-7.31,8.65-7.31,4.64,0,7.68,3.22,7.68,6.71A11.15,11.15,0,0,1,27.91,18.93Z"/></svg>