<svg id="Layer_1" data-name="Layer 1" xmlns="http://www.w3.org/2000/svg" viewBox="0 0 40 40"><title>gha-portal-design</title><path d="M39.63,19.12,21.19.67a1.25,1.25,0,0,0-1.75,0L.38,19.1a1.25,1.25,0,0,0,.87,2.15h4.9V38.44A1.25,1.25,0,0,0,7.4,39.69h7.37A1.24,1.24,0,0,0,16,38.44V29.86h7.34v8.58a1.25,1.25,0,0,0,1.25,1.25H32a1.25,1.25,0,0,0,1.25-1.25V21.25h5.51a1.25,1.25,0,0,0,.88-2.13ZM32,18.75A1.25,1.25,0,0,0,30.74,20V37.19H25.86V28.61a1.24,1.24,0,0,0-1.25-1.25H14.77a1.24,1.24,0,0,0-1.25,1.25v8.58H8.65V20A1.25,1.25,0,0,0,7.4,18.75H4.34l16-15.44L35.73,18.75Z"/></svg>