<svg id="Layer_1" data-name="Layer 1" xmlns="http://www.w3.org/2000/svg" viewBox="0 0 40 40"><title>gha-sign-out</title><path d="M11.69,38.88h-9A2.7,2.7,0,0,1,0,36.18V3.82a2.7,2.7,0,0,1,2.7-2.7h9a2.7,2.7,0,0,1,0,5.4H5.39v27h6.3a2.7,2.7,0,0,1,0,5.4ZM39.24,22l0-.05a3.76,3.76,0,0,0,.25-.31.35.35,0,0,1,0-.08,2.28,2.28,0,0,0,.2-.38,0,0,0,0,0,0,0,2.15,2.15,0,0,0,.11-.36.88.88,0,0,0,.05-.15,2.73,2.73,0,0,0,0-.5v0h0v0a2.61,2.61,0,0,0,0-.48,1.66,1.66,0,0,0-.06-.21,2.46,2.46,0,0,0-.09-.29,2.12,2.12,0,0,0-.11-.21,2,2,0,0,0-.13-.25l-.15-.19a1.56,1.56,0,0,0-.16-.2L27.53,6a2.69,2.69,0,1,0-3.89,3.73L31,17.38l-18.83-.06A2.69,2.69,0,0,0,9.44,20h0a2.71,2.71,0,0,0,2.69,2.7l18.81.06-7.27,7.48A2.69,2.69,0,1,0,27.54,34Z"/></svg>