<svg id="Layer_1" data-name="Layer 1" xmlns="http://www.w3.org/2000/svg" viewBox="0 0 40 40"><title>gha-carspaces</title><path d="M29.1,26.11H25.49a1.57,1.57,0,0,0-1.57,1.57v1.53a1.57,1.57,0,0,0,1.57,1.57H29.1a1.56,1.56,0,0,0,1.56-1.57V27.68A1.56,1.56,0,0,0,29.1,26.11Zm-.06,3h-3.5V27.73H29ZM11.6,24.78H28.39a1.75,1.75,0,0,0,1.68-2.51.3.3,0,0,0,0-.08l-1.79-3.34A3.27,3.27,0,0,0,25.43,17H14.55a3.28,3.28,0,0,0-2.81,1.85L10,22.19a.3.3,0,0,0,0,.08,1.75,1.75,0,0,0,1.69,2.51Zm-.2-1.86,1.79-3.33a.3.3,0,0,0,0-.08,1.63,1.63,0,0,1,1.32-.89H25.43a1.63,1.63,0,0,1,1.32.89s0,0,0,.08l1.79,3.33a.44.44,0,0,1,0,.19.37.37,0,0,1-.22.05H11.6c-.15,0-.22,0-.22-.05A.27.27,0,0,1,11.4,22.92Zm3.06,3.19H10.84a1.56,1.56,0,0,0-1.56,1.57v1.53a1.56,1.56,0,0,0,1.56,1.57h3.62A1.57,1.57,0,0,0,16,29.25V27.68A1.56,1.56,0,0,0,14.46,26.11Zm-.06,3H10.9V27.73h3.5ZM32.63,18.86a2.57,2.57,0,0,0-.73.1l-.21.06-.93-2.28a5.15,5.15,0,0,0-4.47-3H13.69a5.15,5.15,0,0,0-4.47,3L8.3,19,8.1,19a2.57,2.57,0,0,0-.73-.1A2.41,2.41,0,0,0,5,21.39v0a2.91,2.91,0,0,0,1.4,2.5,16.79,16.79,0,0,0-.69,4.26v6.23a2.88,2.88,0,0,0,2.86,2.9H9.69a2.88,2.88,0,0,0,2.86-2.9V34H27.43v.43a2.88,2.88,0,0,0,2.86,2.9h1.15a2.88,2.88,0,0,0,2.86-2.9V28.18a16.35,16.35,0,0,0-.69-4.25A2.91,2.91,0,0,0,35,21.42v0A2.41,2.41,0,0,0,32.63,18.86Zm.75,2.38a1.19,1.19,0,0,1-.94,1.19.84.84,0,0,0-.6.45.93.93,0,0,0-.05.78,15.76,15.76,0,0,1,.85,4.63V34.8A1.17,1.17,0,0,1,31.5,36H30.34a1.18,1.18,0,0,1-1.15-1.2V33.44a.9.9,0,0,0-.87-.92H11.58a.9.9,0,0,0-.87.92V34.8A1.18,1.18,0,0,1,9.56,36H8.4a1.17,1.17,0,0,1-1.14-1.2V28.29a15.76,15.76,0,0,1,.85-4.63,1,1,0,0,0,0-.78.88.88,0,0,0-.6-.45,1.2,1.2,0,0,1-.93-1.19v0c0-.5.27-.82.69-.82a1,1,0,0,1,.27.05l.94.27a.86.86,0,0,0,1-.54l1.22-3.12A3.51,3.51,0,0,1,13.6,15H26.3a3.52,3.52,0,0,1,2.91,2.05l1.22,3.13a.85.85,0,0,0,1,.53l1-.27a.91.91,0,0,1,.27-.05c.42,0,.69.32.69.82ZM.12,16.08a.9.9,0,0,1,.28-1.2L19.57,2.61l.1,0a1.15,1.15,0,0,1,.17-.06h.32a1.15,1.15,0,0,1,.17.06l.1,0L39.6,14.88a.9.9,0,0,1,.28,1.2.83.83,0,0,1-.71.42.8.8,0,0,1-.44-.13L20,4.39l-18.73,12a.8.8,0,0,1-.44.13A.83.83,0,0,1,.12,16.08Z"/></svg>