<svg id="Layer_1" data-name="Layer 1" xmlns="http://www.w3.org/2000/svg" viewBox="0 0 40 40"><title>gha-home</title><path d="M39.67,18.91,20.58,3.15a.91.91,0,0,0-1.16,0L.33,18.92A.91.91,0,0,0,.21,20.2a.91.91,0,0,0,.7.34.9.9,0,0,0,.58-.21L20,5,38.51,20.32a.91.91,0,0,0,1.16-1.41Zm-4.92,1.26-1.82-1.5V35.24h-7.8V27.67a.91.91,0,0,0-.91-.91H15.78a.91.91,0,0,0-.91.91v7.57H7.07V18.68l-1.82,1.5V35.24h-3v1.82H37.72V35.24h-3ZM23.31,35.24H16.69V28.59h6.62Zm-7.59-12h8.56a.91.91,0,0,0,.92-.91V16.63a.91.91,0,0,0-.92-.91H15.72a.91.91,0,0,0-.92.91v5.72A.91.91,0,0,0,15.72,23.26Zm.91-5.72h6.74v3.9H16.63Z"/></svg>