<svg id="Layer_1" data-name="Layer 1" xmlns="http://www.w3.org/2000/svg" viewBox="0 0 40 40"><title>gha-landscape</title><path d="M37.34,35.93V18.3a.93.93,0,0,0-.93-.93H25.31a9.76,9.76,0,0,1-.86,2.15v11H22.83V32.4H33.11V30.55H31.48V19.22h4V35.93h-15V26a8.41,8.41,0,0,1-1.85,1.32v8.66H15.43l-.21-7.61a7.46,7.46,0,0,1-1,.06c-.3,0-.6,0-.9-.05l.21,7.6H10.67l.22-7.75a8.9,8.9,0,0,1-1.86.2l-.21,7.55H5.66v1.85H40V35.93Zm-7.71-5.38H26.3V19.22h3.33Zm-18-5a6.65,6.65,0,0,0,2.63.53A6.84,6.84,0,0,0,21,20.15a6.82,6.82,0,0,0-3-11.71A6.82,6.82,0,0,0,4.78,6.88,6.82,6.82,0,0,0,2.24,18.44a7.16,7.16,0,0,0-.05.8A6.83,6.83,0,0,0,9,26.06,6.53,6.53,0,0,0,11.64,25.53ZM4,19.24a4.75,4.75,0,0,1,.1-1,.93.93,0,0,0-.34-.92A5,5,0,0,1,5.73,8.54a.92.92,0,0,0,.69-.68,5,5,0,0,1,9.8,1.22v.11a.94.94,0,0,0,.83,1A5,5,0,0,1,19.57,19a.93.93,0,0,0-.34.66,5,5,0,0,1-5,4.59,4.88,4.88,0,0,1-2.21-.52.87.87,0,0,0-.42-.1.86.86,0,0,0-.41.1A4.88,4.88,0,0,1,9,24.21,5,5,0,0,1,4,19.24Z"/></svg>