<svg id="Layer_1" data-name="Layer 1" xmlns="http://www.w3.org/2000/svg" viewBox="0 0 40 40"><title>gha-area</title><path d="M35.8,0H4.2a.87.87,0,0,0-.87.87V39.13A.87.87,0,0,0,4.2,40H28.12a.87.87,0,0,0,.86-.87v-14H35.8a.87.87,0,0,0,.87-.86V.87A.87.87,0,0,0,35.8,0Zm-.86,23.44H28.12a.87.87,0,0,0-.87.87v14H5.06V1.73H34.94Z"/><path d="M11.36,17v6.31h2.09V18.07a1.87,1.87,0,0,1,.1-.62v0a1.73,1.73,0,0,1,1.55-1.27c1.26,0,1.4,1.36,1.4,1.94v5.24H18.6V18a2.27,2.27,0,0,1,.1-.65,1.62,1.62,0,0,1,1.47-1.14c1,0,1.47.74,1.47,2.21v5h2.09V18.18a4.18,4.18,0,0,0-1-3.07,2.83,2.83,0,0,0-2-.81,3.11,3.11,0,0,0-2,.64,4,4,0,0,0-.71.71,2.72,2.72,0,0,0-2.38-1.35,3.07,3.07,0,0,0-2.36,1l0-.8h-2l0,.34C11.34,15.45,11.36,16.11,11.36,17Z"/><path d="M29,13.47H27.46A3.56,3.56,0,0,0,28.9,11a2,2,0,0,0-2.24-2,3.35,3.35,0,0,0-2,.63l-.19.15.6,1.53.33-.25a1.64,1.64,0,0,1,1-.39c.39,0,.59.16.59.48,0,.51-.56,1.08-1.7,2.1l-.82.74v1.23H29Z"/></svg>