<svg id="Layer_1" data-name="Layer 1" xmlns="http://www.w3.org/2000/svg" viewBox="0 0 40 40"><title>gha-portal-reports</title><path d="M15.77,13.91h13.3v2.5H15.77Zm0,8.55h13.3V20H15.77Zm0,6.05h13.3V26H15.77Zm0,6.05h13.3v-2.5H15.77ZM10.93,16.41h2.42v-2.5H10.93Zm0,6.05h2.42V20H10.93Zm0,6.05h2.42V26H10.93Zm0,6.05h2.42v-2.5H10.93ZM34.56,4.23V40H5.44V4.23h8.29l.46-1.81h2.14V0h7.34V2.42h2.15l.45,1.81Zm-19,3h8.9l-.59-2.34H21.17V2.5H18.83V4.92H16.14Zm16.51-.53H26.89l.76,3H12.35l.76-3H7.94V37.5H32.06Z"/></svg>