<svg id="Layer_1" data-name="Layer 1" xmlns="http://www.w3.org/2000/svg" viewBox="0 0 40 40"><title>gha-portal-sales</title><path d="M20,0A14,14,0,0,0,6.05,14,14.14,14.14,0,0,0,12.1,25.52v7.22h1.21v3.63h1.21V40h11V36.37h1.21V32.74H27.9V25.45A14,14,0,0,0,20,0Zm3,37.5H17V36.37h6Zm1.21-3.63H15.81V32.74h8.38Zm1.21-3.63H14.6V29.11H25.4Zm-6.74-3.63-1.1-7.33.74.56,1.7-1.7,1.7,1.7.74-.56-1.1,7.33ZM26,23.71l-.6.37v2.53H23.87L25.47,16l-1.75-.26-.24-.32-.31.24-.17,0,0,.18-1,.78L20,14.6l-1.93,1.94-1-.78,0-.18-.17,0-.31-.24-.24.32L14.53,16l1.6,10.66H14.6V24.14l-.6-.37A11.59,11.59,0,0,1,8.55,14,11.45,11.45,0,1,1,26,23.71Z"/></svg>