<svg id="Layer_1" data-name="Layer 1" xmlns="http://www.w3.org/2000/svg" viewBox="0 0 40 40"><title>gha-download</title><path d="M38.88,28.31v9a2.7,2.7,0,0,1-2.7,2.7H3.82a2.7,2.7,0,0,1-2.7-2.7v-9a2.7,2.7,0,0,1,5.4,0v6.3h27v-6.3a2.7,2.7,0,0,1,5.4,0ZM18,29.8l.05,0,.31.25.08.05a1.72,1.72,0,0,0,.38.2h0a2.17,2.17,0,0,0,.36.12l.15,0a2.73,2.73,0,0,0,.5,0h.05a2.61,2.61,0,0,0,.48,0l.21-.06a2.46,2.46,0,0,0,.29-.09l.21-.11.25-.13a1.39,1.39,0,0,0,.19-.15,1.56,1.56,0,0,0,.2-.16L34,18.09a2.69,2.69,0,0,0-3.73-3.89l-7.65,7.33.06-18.82A2.7,2.7,0,0,0,20,0h0a2.71,2.71,0,0,0-2.7,2.69L17.22,21.5,9.74,14.23A2.69,2.69,0,0,0,6,18.1Z"/></svg>