<svg id="Layer_1" data-name="Layer 1" xmlns="http://www.w3.org/2000/svg" viewBox="0 0 40 40"><title>gha-landscaping-unobtrusive</title><path d="M39.89,31.53l0-.09a1.21,1.21,0,0,0,0-.18A1.33,1.33,0,0,0,40,31a1.43,1.43,0,0,0,0-.29,1.21,1.21,0,0,0,0-.18l0-.08a.77.77,0,0,0-.1-.18l0-.07a.91.91,0,0,0-.18-.21l-4.71-4.72a1.43,1.43,0,1,0-2,2l2.27,2.28H24.76c-2.5,0-5.5-5-8.18-9.55,2.68-4.56,5.68-9.55,8.18-9.55H35.12l-2.27,2.28a1.43,1.43,0,1,0,2,2L39.58,10a1.44,1.44,0,0,0,.31-.46v0A1.46,1.46,0,0,0,40,9a1.5,1.5,0,0,0-.1-.52v0A1.6,1.6,0,0,0,39.58,8L34.87,3.3a1.43,1.43,0,0,0-2,2L35.12,7.6H24.76C21,7.6,18,12.05,14.92,17.19,11.82,12,8.73,7.64,4.76,7.64H1.43a1.43,1.43,0,0,0,0,2.86H4.76c2.74,0,5.77,4.85,8.51,9.5-2.74,4.65-5.77,9.5-8.51,9.5H1.43a1.43,1.43,0,0,0,0,2.86H4.76c4,0,7.06-4.38,10.16-9.55C18,28,21,32.4,24.76,32.4H35.12l-2.27,2.28a1.43,1.43,0,1,0,2,2L39.58,32a1.24,1.24,0,0,0,.18-.22l0-.07A1,1,0,0,0,39.89,31.53Z"/></svg>