<svg id="Layer_1" data-name="Layer 1" xmlns="http://www.w3.org/2000/svg" viewBox="0 0 40 40"><title>gha-portal-toolbox</title><path d="M36.46,10.28H26.55C26.08,8.15,24.37,5.44,20,5.44s-6.08,2.71-6.55,4.84H3.54A3.55,3.55,0,0,0,0,13.82V31a3.55,3.55,0,0,0,3.54,3.54H36.46A3.55,3.55,0,0,0,40,31V13.82A3.55,3.55,0,0,0,36.46,10.28ZM20,7.94c2.58,0,3.57,1.29,4,2.34H16C16.42,9.24,17.41,7.94,20,7.94ZM3.54,12.78H36.46a1,1,0,0,1,1,1v3.72H2.5V13.82A1,1,0,0,1,3.54,12.78ZM18.23,20h3.54v1.13H18.23Zm18.23,12H3.54a1,1,0,0,1-1-1V20H15.73v1.38A2.25,2.25,0,0,0,18,23.67h4a2.25,2.25,0,0,0,2.25-2.25V20H37.5V31A1,1,0,0,1,36.46,32.06Z"/></svg>