<svg id="Layer_1" data-name="Layer 1" xmlns="http://www.w3.org/2000/svg" viewBox="0 0 40 40"><title>gha-floorplan</title><path d="M35.45,0H4.55A4.55,4.55,0,0,0,0,4.55v30.9A4.55,4.55,0,0,0,4.55,40H18.18a2.73,2.73,0,0,0,2.73-2.73V28.18a.91.91,0,0,0-1.82,0v9.09a.91.91,0,0,1-.91.91H4.55a2.73,2.73,0,0,1-2.73-2.73V21.82H19.09v.91a.91.91,0,1,0,1.82,0V20a.91.91,0,0,0-1.82,0H1.82V4.55A2.73,2.73,0,0,1,4.55,1.82H19.09V14.55a.91.91,0,0,0,1.82,0v-.91h1.82a.91.91,0,0,0,0-1.82H20.91v-10H35.45a2.73,2.73,0,0,1,2.73,2.73v7.27H29.09a.91.91,0,0,0,0,1.82H30v1.81a.91.91,0,0,0,1.82,0V13.64h6.36V24.55a.9.9,0,0,1-.91.9H29.09v-.9a.91.91,0,1,0-1.82,0v3.63a.91.91,0,0,0,1.82,0v-.91h8.18A2.72,2.72,0,0,0,40,24.55v-20A4.55,4.55,0,0,0,35.45,0Z"/></svg>