<svg id="Layer_1" data-name="Layer 1" xmlns="http://www.w3.org/2000/svg" viewBox="0 0 40 40"><title>gha-portal-marketing</title><path d="M34.14,5.86A20,20,0,1,0,5.86,34.14,20,20,0,1,0,34.14,5.86ZM32.37,32.37A17.49,17.49,0,1,1,7.63,7.63,17.49,17.49,0,1,1,32.37,32.37ZM30.72,9.28A15.16,15.16,0,1,0,35.16,20,15.07,15.07,0,0,0,30.72,9.28ZM29,29A12.65,12.65,0,1,1,32.66,20,12.58,12.58,0,0,1,29,29ZM27.3,12.7a10.32,10.32,0,1,0,0,14.6A10.25,10.25,0,0,0,27.3,12.7ZM25.53,25.53a7.82,7.82,0,1,1,0-11.06A7.76,7.76,0,0,1,25.53,25.53Zm-9.41-9.41a5.49,5.49,0,1,0,7.76,0A5.49,5.49,0,0,0,16.12,16.12Zm6,6a3,3,0,1,1,0-4.22A3,3,0,0,1,22.11,22.11Z"/></svg>