<svg id="Layer_1" data-name="Layer 1" xmlns="http://www.w3.org/2000/svg" viewBox="0 0 40 40"><title>gha-social-twitter</title><g id="Twitter"><path d="M20,0A20,20,0,1,0,40,20,20,20,0,0,0,20,0Zm7.6,15.75c0,.17,0,.35,0,.53,0,5.48-4.07,11.8-11.51,11.8a11.31,11.31,0,0,1-6.2-1.86,7.77,7.77,0,0,0,1,.06,8,8,0,0,0,5-1.78,4.06,4.06,0,0,1-3.78-2.88,3.84,3.84,0,0,0,.76.08A4.07,4.07,0,0,0,14,21.57a4.09,4.09,0,0,1-3.2-4.07v0a3.81,3.81,0,0,0,1.79.51,4.22,4.22,0,0,1-1.28-5.54,11.4,11.4,0,0,0,8.33,4.34,3.8,3.8,0,0,1-.11-.95,4.09,4.09,0,0,1,4-4.14A4,4,0,0,1,26.5,13a7.74,7.74,0,0,0,2.57-1,4.12,4.12,0,0,1-1.78,2.29,7.83,7.83,0,0,0,2.32-.65A8.23,8.23,0,0,1,27.6,15.77Z"/></g></svg>