<svg id="Layer_1" data-name="Layer 1" xmlns="http://www.w3.org/2000/svg" viewBox="0 0 40 40"><title>gha-landscaping-versatile</title><path d="M14.08,40a2.72,2.72,0,0,1-1.32-.35L7.27,36.5a2.63,2.63,0,0,1-1.11-3.33l1.35-3A15.16,15.16,0,0,1,5.67,27L2.39,26.7A2.66,2.66,0,0,1,0,24V17.76a2.65,2.65,0,0,1,2.39-2.63l3.28-.33a15.16,15.16,0,0,1,1.84-3.16l-1.34-3A2.64,2.64,0,0,1,7.26,5.33l5.5-3.15a2.65,2.65,0,0,1,3.46.73l1.93,2.65a15.88,15.88,0,0,1,3.71,0l2-2.66a2.65,2.65,0,0,1,3.46-.73l5.47,3.17a2.63,2.63,0,0,1,1.1,3.32l-1.36,3a16.8,16.8,0,0,1,1,1.52h0a16.72,16.72,0,0,1,.82,1.64l3.27.33A2.64,2.64,0,0,1,40,17.78v6.29a2.66,2.66,0,0,1-2.37,2.62L34.34,27a15,15,0,0,1-1.84,3.17l1.34,3a2.63,2.63,0,0,1-1.09,3.34l-5.5,3.15a2.65,2.65,0,0,1-3.46-.73l-1.93-2.64a16.44,16.44,0,0,1-3.71,0l-1.93,2.64A2.64,2.64,0,0,1,14.08,40Zm0-35.61-.05,0L8.54,7.55a.08.08,0,0,0,0,.09l1.65,3.65A1.27,1.27,0,0,1,10,12.65a12.56,12.56,0,0,0-2.21,3.79,1.29,1.29,0,0,1-1.07.83l-4.06.41s-.08,0-.08.08v6.29a.1.1,0,0,0,.08.1l4.06.41a1.29,1.29,0,0,1,1.07.83A12.56,12.56,0,0,0,10,29.18a1.27,1.27,0,0,1,.18,1.36L8.5,34.21a.1.1,0,0,0,0,.07L14,37.42a.08.08,0,0,0,.12,0l2.39-3.27a1.29,1.29,0,0,1,1.25-.51,12.73,12.73,0,0,0,4.44,0,1.29,1.29,0,0,1,1.25.51l2.38,3.27a.09.09,0,0,0,.12,0l5.49-3.14a.08.08,0,0,0,0-.09l-1.65-3.65A1.25,1.25,0,0,1,30,29.18a13,13,0,0,0,2.21-3.8,1.29,1.29,0,0,1,1.07-.83l4.06-.41a.1.1,0,0,0,.07-.08V17.78a.09.09,0,0,0-.08-.07l-4-.41a1.28,1.28,0,0,1-1.08-.84,12.82,12.82,0,0,0-.93-2A13.28,13.28,0,0,0,30,12.67a1.26,1.26,0,0,1-.18-1.35l1.67-3.69a.07.07,0,0,0-.05-.06L26,4.4a.1.1,0,0,0-.12,0L23.47,7.71a1.32,1.32,0,0,1-1.25.5,12.73,12.73,0,0,0-4.44,0,1.29,1.29,0,0,1-1.25-.51L14.15,4.42A.11.11,0,0,0,14.08,4.39Zm6,25.72a9,9,0,1,1,9.1-9A9.06,9.06,0,0,1,20.13,30.11Zm0-15.48a6.46,6.46,0,1,0,6.53,6.46A6.5,6.5,0,0,0,20.13,14.63Z"/></svg>