<svg id="Layer_1" data-name="Layer 1" xmlns="http://www.w3.org/2000/svg" viewBox="0 0 40 40"><title>gha-social-instagram</title><path d="M23.93,12.27H16.07a3.85,3.85,0,0,0-2.78,1,3.83,3.83,0,0,0-1,2.79v7.82a3.83,3.83,0,0,0,1.07,2.83,3.88,3.88,0,0,0,2.77,1h7.78a3.93,3.93,0,0,0,2.8-1,3.81,3.81,0,0,0,1-2.8V16.07a3.55,3.55,0,0,0-3.8-3.8ZM20,24.82A4.88,4.88,0,1,1,24.87,20,4.88,4.88,0,0,1,20,24.82Zm5.06-8.76a1.11,1.11,0,1,1,0-2.21,1.11,1.11,0,0,1,0,2.21Z"/><circle cx="20" cy="19.95" r="3.13" transform="translate(-8.25 19.98) rotate(-45)"/><path d="M20,0A20,20,0,1,0,40,20,20,20,0,0,0,20,0Zm9.47,23.91a5.47,5.47,0,0,1-1.56,4,5.55,5.55,0,0,1-4,1.5H16.11a5.59,5.59,0,0,1-4-1.5,5.52,5.52,0,0,1-1.59-4.08V16.07a5.24,5.24,0,0,1,5.54-5.54h7.86a5.27,5.27,0,0,1,5.54,5.54Z"/></svg>