<svg id="Layer_1" data-name="Layer 1" xmlns="http://www.w3.org/2000/svg" viewBox="0 0 40 40"><title>gha-landscaping-durable</title><path d="M35.09,3.42,20.38,0a1.28,1.28,0,0,0-.55,0L4.91,3.45A1.21,1.21,0,0,0,4,4.63V20.9A18.29,18.29,0,0,0,14.86,37.53l4.59,2.34A1.17,1.17,0,0,0,20,40a1.24,1.24,0,0,0,.56-.13l4.51-2.31A18.11,18.11,0,0,0,36,20.87V4.61A1.22,1.22,0,0,0,35.09,3.42ZM24,35.35l-4,2.06-4.1-2.09A15.85,15.85,0,0,1,6.41,20.89V5.61l13.7-3.14L33.59,5.58V8.72l-12.3,7.34a1.22,1.22,0,0,0,.63,2.27,1.17,1.17,0,0,0,.62-.18l11.05-6.59v3.87l-12.3,7.34a1.23,1.23,0,0,0-.42,1.68,1.22,1.22,0,0,0,1.05.59,1.26,1.26,0,0,0,.62-.17l11.05-6.6v2.6A15.71,15.71,0,0,1,24,35.35Z"/></svg>