<svg id="Layer_1" data-name="Layer 1" xmlns="http://www.w3.org/2000/svg" viewBox="0 0 40 40"><title>gha-climate</title><path d="M40,25.94a.9.9,0,0,1-.09.68.85.85,0,0,1-.54.42L36,28l.85,3.33a.89.89,0,0,1-.09.68.87.87,0,0,1-.55.41.83.83,0,0,1-.22,0,.89.89,0,0,1-.87-.67l-1-3.82-2-1.18.59,4a.92.92,0,0,1-.17.66.87.87,0,0,1-.59.35h-.13a.91.91,0,0,1-.89-.76l-.79-5.44-7-4.06v8.11l4.32,3.41a.9.9,0,0,1,.14,1.26.87.87,0,0,1-.7.34,1,1,0,0,1-.56-.19L23.12,32V34.3l2.82,2.76a.91.91,0,0,1,.27.64.86.86,0,0,1-.26.63.84.84,0,0,1-.64.27.87.87,0,0,1-.62-.26l-3.36-3.28V4.94l3.36-3.28a.88.88,0,0,1,1.26,0,.89.89,0,0,1,.26.63.91.91,0,0,1-.27.64L23.12,5.7V8.05l3.2-2.53a1,1,0,0,1,.56-.19.87.87,0,0,1,.7.34.9.9,0,0,1-.14,1.26l-4.32,3.41v8.11l7-4.06L30.94,9a.91.91,0,0,1,.89-.76H32a.89.89,0,0,1,.76,1l-.59,4,2-1.18,1-3.82A.89.89,0,0,1,36,7.58a.83.83,0,0,1,.22,0,.87.87,0,0,1,.55.41.89.89,0,0,1,.09.68L36,12l3.31.93a.85.85,0,0,1,.54.42.89.89,0,0,1-.78,1.34,1,1,0,0,1-.24,0l-3.8-1.06L33,14.8l3.79,1.51a.91.91,0,0,1,.5.48.94.94,0,0,1,0,.68.9.9,0,0,1-.84.57,1,1,0,0,1-.33-.06L31,16,24,20l7,4.05,5.11-2a1,1,0,0,1,.33-.06.9.9,0,0,1,.33,1.73L33,25.2l2,1.17,3.8-1.06a1,1,0,0,1,.24,0A.91.91,0,0,1,40,25.94Zm-30.1-.67a.92.92,0,0,0-.78-.45.89.89,0,0,0-.45.12L2.88,28.27A.9.9,0,0,0,3.32,30a1,1,0,0,0,.45-.12L9.54,26.5A.91.91,0,0,0,9.87,25.27Zm-7-13.54,5.77,3.33a.89.89,0,0,0,.45.12h0a.9.9,0,0,0,.78-.45.89.89,0,0,0-.33-1.22L3.77,10.18a.87.87,0,0,0-.45-.12.89.89,0,0,0-.77.44A.91.91,0,0,0,2.87,11.73ZM8.46,20a.91.91,0,0,0-.9-.9H.9a.9.9,0,1,0,0,1.8H7.56A.9.9,0,0,0,8.46,20ZM19,1a.89.89,0,0,0-.9.89V8.56a.9.9,0,1,0,1.79,0V1.9A.89.89,0,0,0,19,1Zm-6.5,9.54a.91.91,0,0,0,1.23.32.89.89,0,0,0,.32-1.22L10.72,3.88A.88.88,0,0,0,10,3.43a.87.87,0,0,0-.45.12.9.9,0,0,0-.33,1.23ZM19,10.3a9.7,9.7,0,1,0,0,19.4h.51l.38,0v-1.8l-.42,0H19a7.9,7.9,0,1,1,0-15.8h.47l.42,0V10.33l-.38,0ZM13.72,29.13a.86.86,0,0,0-.44-.12.9.9,0,0,0-.78.45L9.17,35.23a.89.89,0,0,0-.09.68.87.87,0,0,0,.42.54.89.89,0,0,0,.45.12h0a.88.88,0,0,0,.77-.45l3.33-5.77a.9.9,0,0,0,.09-.68A.87.87,0,0,0,13.72,29.13ZM19,30.54a.9.9,0,0,0-.9.9V38.1a.9.9,0,0,0,1.79,0V31.44A.89.89,0,0,0,19,30.54Z"/></svg>